<mxfile host="app.diagrams.net" modified="2023-05-25T16:00:17.707Z" agent="Mozilla/5.0 (Windows NT 10.0; Win64; x64) AppleWebKit/537.36 (KHTML, like Gecko) Chrome/113.0.0.0 Safari/537.36" etag="6SZPQaGdBptTNakXX1-b" version="21.3.0" type="github">
  <diagram name="Page-1" id="NsSTfSK6y7PkXDlgdtSz">
    <mxGraphModel dx="2074" dy="1124" grid="1" gridSize="10" guides="1" tooltips="1" connect="1" arrows="1" fold="1" page="1" pageScale="1" pageWidth="850" pageHeight="1100" math="0" shadow="0">
      <root>
        <mxCell id="0" />
        <mxCell id="1" parent="0" />
        <mxCell id="hAMjwoxISmoEQ_6ooi0o-5" value="" style="rounded=0;whiteSpace=wrap;html=1;fillColor=#CCCCCC;" parent="1" vertex="1">
          <mxGeometry x="100" y="10" width="40" height="40" as="geometry" />
        </mxCell>
        <mxCell id="hAMjwoxISmoEQ_6ooi0o-6" value="" style="rounded=0;whiteSpace=wrap;html=1;fillColor=#CCCCCC;" parent="1" vertex="1">
          <mxGeometry x="140" y="10" width="40" height="40" as="geometry" />
        </mxCell>
        <mxCell id="hAMjwoxISmoEQ_6ooi0o-7" value="" style="rounded=0;whiteSpace=wrap;html=1;fillColor=#CCCCCC;" parent="1" vertex="1">
          <mxGeometry x="180" y="10" width="40" height="40" as="geometry" />
        </mxCell>
        <mxCell id="hAMjwoxISmoEQ_6ooi0o-8" value="" style="rounded=0;whiteSpace=wrap;html=1;fillColor=#000000;" parent="1" vertex="1">
          <mxGeometry x="220" y="10" width="40" height="40" as="geometry" />
        </mxCell>
        <mxCell id="hAMjwoxISmoEQ_6ooi0o-18" value="" style="rounded=0;whiteSpace=wrap;html=1;fillColor=#CCCCCC;" parent="1" vertex="1">
          <mxGeometry x="380" y="60" width="40" height="20" as="geometry" />
        </mxCell>
        <mxCell id="hAMjwoxISmoEQ_6ooi0o-19" value="" style="rounded=0;whiteSpace=wrap;html=1;fillColor=#000000;" parent="1" vertex="1">
          <mxGeometry x="380" y="90" width="40" height="20" as="geometry" />
        </mxCell>
        <mxCell id="hAMjwoxISmoEQ_6ooi0o-20" value="" style="rounded=0;whiteSpace=wrap;html=1;" parent="1" vertex="1">
          <mxGeometry x="380" y="120" width="40" height="20" as="geometry" />
        </mxCell>
        <mxCell id="hAMjwoxISmoEQ_6ooi0o-21" value="&lt;font style=&quot;font-size: 18px;&quot;&gt;Invalid entry&lt;/font&gt;" style="rounded=0;whiteSpace=wrap;html=1;fillColor=none;strokeColor=none;align=left;" parent="1" vertex="1">
          <mxGeometry x="430" y="60" width="120" height="20" as="geometry" />
        </mxCell>
        <mxCell id="hAMjwoxISmoEQ_6ooi0o-22" value="&lt;font style=&quot;font-size: 18px;&quot;&gt;Last entry&lt;/font&gt;" style="rounded=0;whiteSpace=wrap;html=1;fillColor=none;strokeColor=none;align=left;" parent="1" vertex="1">
          <mxGeometry x="430" y="90" width="120" height="20" as="geometry" />
        </mxCell>
        <mxCell id="hAMjwoxISmoEQ_6ooi0o-23" value="&lt;font style=&quot;font-size: 18px;&quot;&gt;Free space&lt;/font&gt;" style="rounded=0;whiteSpace=wrap;html=1;fillColor=none;strokeColor=none;align=left;" parent="1" vertex="1">
          <mxGeometry x="430" y="120" width="120" height="20" as="geometry" />
        </mxCell>
        <mxCell id="M4mcyi1yTIt_T79iE7tK-1" value="&lt;font style=&quot;font-size: 18px;&quot;&gt;Head&lt;/font&gt;" style="rounded=0;whiteSpace=wrap;html=1;fillColor=none;strokeColor=none;" vertex="1" parent="1">
          <mxGeometry x="10" y="10" width="60" height="40" as="geometry" />
        </mxCell>
        <mxCell id="M4mcyi1yTIt_T79iE7tK-2" value="" style="endArrow=classic;html=1;rounded=0;exitX=1;exitY=0.5;exitDx=0;exitDy=0;entryX=0;entryY=0.5;entryDx=0;entryDy=0;" edge="1" parent="1" source="M4mcyi1yTIt_T79iE7tK-1" target="hAMjwoxISmoEQ_6ooi0o-5">
          <mxGeometry width="50" height="50" relative="1" as="geometry">
            <mxPoint x="400" y="280" as="sourcePoint" />
            <mxPoint x="450" y="230" as="targetPoint" />
          </mxGeometry>
        </mxCell>
        <mxCell id="M4mcyi1yTIt_T79iE7tK-3" value="" style="rounded=0;whiteSpace=wrap;html=1;fillStyle=hatch;fillColor=#000000;" vertex="1" parent="1">
          <mxGeometry x="10" y="70" width="80" height="40" as="geometry" />
        </mxCell>
        <mxCell id="M4mcyi1yTIt_T79iE7tK-4" value="" style="rounded=0;whiteSpace=wrap;html=1;fillStyle=hatch;fillColor=#000000;" vertex="1" parent="1">
          <mxGeometry x="100" y="70" width="80" height="40" as="geometry" />
        </mxCell>
        <mxCell id="M4mcyi1yTIt_T79iE7tK-5" value="" style="rounded=0;whiteSpace=wrap;html=1;fillStyle=hatch;fillColor=#000000;" vertex="1" parent="1">
          <mxGeometry x="190" y="70" width="80" height="40" as="geometry" />
        </mxCell>
        <mxCell id="M4mcyi1yTIt_T79iE7tK-6" value="" style="rounded=0;whiteSpace=wrap;html=1;fillStyle=cross-hatch;fillColor=#000000;" vertex="1" parent="1">
          <mxGeometry x="280" y="70" width="80" height="40" as="geometry" />
        </mxCell>
        <mxCell id="M4mcyi1yTIt_T79iE7tK-17" value="" style="endArrow=classic;html=1;rounded=0;exitX=0.5;exitY=1;exitDx=0;exitDy=0;entryX=0.5;entryY=0;entryDx=0;entryDy=0;" edge="1" parent="1" source="hAMjwoxISmoEQ_6ooi0o-5" target="M4mcyi1yTIt_T79iE7tK-3">
          <mxGeometry width="50" height="50" relative="1" as="geometry">
            <mxPoint x="400" y="280" as="sourcePoint" />
            <mxPoint x="450" y="230" as="targetPoint" />
          </mxGeometry>
        </mxCell>
        <mxCell id="M4mcyi1yTIt_T79iE7tK-18" value="" style="endArrow=classic;html=1;rounded=0;exitX=0.5;exitY=1;exitDx=0;exitDy=0;entryX=0.5;entryY=0;entryDx=0;entryDy=0;" edge="1" parent="1" source="hAMjwoxISmoEQ_6ooi0o-6" target="M4mcyi1yTIt_T79iE7tK-4">
          <mxGeometry width="50" height="50" relative="1" as="geometry">
            <mxPoint x="130" y="60" as="sourcePoint" />
            <mxPoint x="60" y="80" as="targetPoint" />
          </mxGeometry>
        </mxCell>
        <mxCell id="M4mcyi1yTIt_T79iE7tK-19" value="" style="endArrow=classic;html=1;rounded=0;exitX=0.5;exitY=1;exitDx=0;exitDy=0;entryX=0.5;entryY=0;entryDx=0;entryDy=0;" edge="1" parent="1" source="hAMjwoxISmoEQ_6ooi0o-7" target="M4mcyi1yTIt_T79iE7tK-5">
          <mxGeometry width="50" height="50" relative="1" as="geometry">
            <mxPoint x="140" y="70" as="sourcePoint" />
            <mxPoint x="70" y="90" as="targetPoint" />
          </mxGeometry>
        </mxCell>
        <mxCell id="M4mcyi1yTIt_T79iE7tK-20" value="" style="endArrow=classic;html=1;rounded=0;exitX=0.5;exitY=1;exitDx=0;exitDy=0;entryX=0.5;entryY=0;entryDx=0;entryDy=0;" edge="1" parent="1" source="hAMjwoxISmoEQ_6ooi0o-8" target="M4mcyi1yTIt_T79iE7tK-6">
          <mxGeometry width="50" height="50" relative="1" as="geometry">
            <mxPoint x="150" y="80" as="sourcePoint" />
            <mxPoint x="80" y="100" as="targetPoint" />
          </mxGeometry>
        </mxCell>
        <mxCell id="M4mcyi1yTIt_T79iE7tK-21" value="" style="rounded=0;whiteSpace=wrap;html=1;fillColor=#000000;" vertex="1" parent="1">
          <mxGeometry x="100" y="170" width="40" height="40" as="geometry" />
        </mxCell>
        <mxCell id="M4mcyi1yTIt_T79iE7tK-22" value="" style="rounded=0;whiteSpace=wrap;html=1;fillColor=none;" vertex="1" parent="1">
          <mxGeometry x="140" y="170" width="40" height="40" as="geometry" />
        </mxCell>
        <mxCell id="M4mcyi1yTIt_T79iE7tK-23" value="" style="rounded=0;whiteSpace=wrap;html=1;fillColor=none;" vertex="1" parent="1">
          <mxGeometry x="180" y="170" width="40" height="40" as="geometry" />
        </mxCell>
        <mxCell id="M4mcyi1yTIt_T79iE7tK-24" value="" style="rounded=0;whiteSpace=wrap;html=1;fillColor=none;" vertex="1" parent="1">
          <mxGeometry x="220" y="170" width="40" height="40" as="geometry" />
        </mxCell>
        <mxCell id="M4mcyi1yTIt_T79iE7tK-25" value="&lt;font style=&quot;font-size: 18px;&quot;&gt;Head&lt;/font&gt;" style="rounded=0;whiteSpace=wrap;html=1;fillColor=none;strokeColor=none;" vertex="1" parent="1">
          <mxGeometry x="10" y="170" width="60" height="40" as="geometry" />
        </mxCell>
        <mxCell id="M4mcyi1yTIt_T79iE7tK-26" value="" style="endArrow=classic;html=1;rounded=0;exitX=1;exitY=0.5;exitDx=0;exitDy=0;entryX=0;entryY=0.5;entryDx=0;entryDy=0;" edge="1" parent="1" source="M4mcyi1yTIt_T79iE7tK-25" target="M4mcyi1yTIt_T79iE7tK-21">
          <mxGeometry width="50" height="50" relative="1" as="geometry">
            <mxPoint x="400" y="440" as="sourcePoint" />
            <mxPoint x="450" y="390" as="targetPoint" />
          </mxGeometry>
        </mxCell>
        <mxCell id="M4mcyi1yTIt_T79iE7tK-27" value="" style="rounded=0;whiteSpace=wrap;html=1;fillStyle=hatch;fillColor=none;" vertex="1" parent="1">
          <mxGeometry x="10" y="230" width="80" height="40" as="geometry" />
        </mxCell>
        <mxCell id="M4mcyi1yTIt_T79iE7tK-28" value="" style="rounded=0;whiteSpace=wrap;html=1;fillStyle=hatch;fillColor=none;" vertex="1" parent="1">
          <mxGeometry x="100" y="230" width="80" height="40" as="geometry" />
        </mxCell>
        <mxCell id="M4mcyi1yTIt_T79iE7tK-29" value="" style="rounded=0;whiteSpace=wrap;html=1;fillStyle=hatch;fillColor=none;" vertex="1" parent="1">
          <mxGeometry x="190" y="230" width="80" height="40" as="geometry" />
        </mxCell>
        <mxCell id="M4mcyi1yTIt_T79iE7tK-30" value="" style="rounded=0;whiteSpace=wrap;html=1;fillStyle=cross-hatch;fillColor=#000000;" vertex="1" parent="1">
          <mxGeometry x="280" y="230" width="80" height="40" as="geometry" />
        </mxCell>
        <mxCell id="M4mcyi1yTIt_T79iE7tK-31" value="" style="endArrow=classic;html=1;rounded=0;exitX=0.5;exitY=1;exitDx=0;exitDy=0;entryX=0.5;entryY=0;entryDx=0;entryDy=0;" edge="1" parent="1" source="M4mcyi1yTIt_T79iE7tK-21" target="M4mcyi1yTIt_T79iE7tK-30">
          <mxGeometry width="50" height="50" relative="1" as="geometry">
            <mxPoint x="400" y="440" as="sourcePoint" />
            <mxPoint x="450" y="390" as="targetPoint" />
          </mxGeometry>
        </mxCell>
        <mxCell id="M4mcyi1yTIt_T79iE7tK-35" value="" style="shape=flexArrow;endArrow=classic;html=1;rounded=0;" edge="1" parent="1">
          <mxGeometry width="50" height="50" relative="1" as="geometry">
            <mxPoint x="189" y="120" as="sourcePoint" />
            <mxPoint x="189" y="160" as="targetPoint" />
          </mxGeometry>
        </mxCell>
        <mxCell id="M4mcyi1yTIt_T79iE7tK-36" value="" style="rounded=0;whiteSpace=wrap;html=1;fillStyle=hatch;fillColor=#000000;" vertex="1" parent="1">
          <mxGeometry x="380" y="150" width="40" height="20" as="geometry" />
        </mxCell>
        <mxCell id="M4mcyi1yTIt_T79iE7tK-37" value="&lt;font style=&quot;font-size: 18px;&quot;&gt;Old data block&lt;/font&gt;" style="rounded=0;whiteSpace=wrap;html=1;fillColor=none;strokeColor=none;align=left;" vertex="1" parent="1">
          <mxGeometry x="430" y="150" width="120" height="20" as="geometry" />
        </mxCell>
        <mxCell id="M4mcyi1yTIt_T79iE7tK-38" value="" style="rounded=0;whiteSpace=wrap;html=1;fillStyle=cross-hatch;fillColor=#000000;" vertex="1" parent="1">
          <mxGeometry x="380" y="180" width="40" height="20" as="geometry" />
        </mxCell>
        <mxCell id="M4mcyi1yTIt_T79iE7tK-39" value="&lt;font style=&quot;font-size: 18px;&quot;&gt;Current data block&lt;/font&gt;" style="rounded=0;whiteSpace=wrap;html=1;fillColor=none;strokeColor=none;align=left;" vertex="1" parent="1">
          <mxGeometry x="430" y="180" width="150" height="20" as="geometry" />
        </mxCell>
      </root>
    </mxGraphModel>
  </diagram>
</mxfile>
